<?xml version="1.0" encoding="UTF-8" standalone="no"?>
<!DOCTYPE svg PUBLIC "-//W3C//DTD SVG 1.1//EN" "http://www.w3.org/Graphics/SVG/1.1/DTD/svg11.dtd">
<svg width="100%" height="100%" viewBox="0 0 334 190" version="1.1" xmlns="http://www.w3.org/2000/svg" xmlns:xlink="http://www.w3.org/1999/xlink" xml:space="preserve" xmlns:serif="http://www.serif.com/" style="fill-rule:evenodd;clip-rule:evenodd;">
    <g transform="matrix(1,0,0,1,5.3128,4.46458)">
        <g>
            <path d="M156.246,178.703L297.246,96.703" style="fill:none;fill-rule:nonzero;stroke:black;stroke-width:3px;"/>
            <path d="M21.267,97.691L162.267,18.691" style="fill:none;fill-rule:nonzero;stroke:black;stroke-width:3px;"/>
            <path d="M162.746,18.699L298.746,96.699" style="fill:none;fill-rule:nonzero;stroke:black;stroke-width:3px;"/>
            <path d="M21.768,97.711L157.768,178.711" style="fill:none;fill-rule:nonzero;stroke:black;stroke-width:3px;"/>
        </g>
        <g transform="matrix(1,0,0,1,2.96308,7.4069)">
            <text x="237.973px" y="33.747px" style="font-family:'ArialRoundedMTBold', 'Arial Rounded MT Bold', sans-serif;font-size:12px;">m</text>
        </g>
        <g transform="matrix(1,0,0,1,-167.758,8.03612)">
            <text x="237.973px" y="33.747px" style="font-family:'ArialRoundedMTBold', 'Arial Rounded MT Bold', sans-serif;font-size:12px;">m</text>
        </g>
        <g>
            <path d="M6.263,86.694L146.263,7.694" style="fill:none;fill-rule:nonzero;stroke:rgb(255,0,0);stroke-width:3px;"/>
            <path d="M140.872,2.779L154.872,12.779" style="fill:none;fill-rule:nonzero;stroke:rgb(255,0,0);stroke-width:3px;"/>
            <path d="M0.872,81.779L14.872,91.779" style="fill:none;fill-rule:nonzero;stroke:rgb(255,0,0);stroke-width:3px;"/>
        </g>
        <g>
            <path d="M179.75,6.701L314.75,84.701" style="fill:none;fill-rule:nonzero;stroke:rgb(255,0,0);stroke-width:3px;"/>
            <path d="M304.218,90.72L322.218,79.72" style="fill:none;fill-rule:nonzero;stroke:rgb(255,0,0);stroke-width:3px;"/>
            <path d="M169.218,12.72L187.218,1.72" style="fill:none;fill-rule:nonzero;stroke:rgb(255,0,0);stroke-width:3px;"/>
        </g>
    </g>
</svg>
