<svg width="16" height="16" viewBox="0 0 16 16" fill="none" xmlns="http://www.w3.org/2000/svg">
<path fill-rule="evenodd" clip-rule="evenodd" d="M1.32849 12.3461C1.00649 12.5966 0.976861 13.0726 1.26531 13.361L2.29923 14.3949C2.78271 14.8784 3.46766 15.0561 4.06847 14.8449C6.48124 13.9966 8.74671 12.6078 10.6773 10.6773C12.6078 8.74671 13.9966 6.48124 14.8449 4.06847C15.0561 3.46766 14.8784 2.78271 14.3949 2.29923L13.361 1.26531C13.0726 0.976861 12.5966 1.00649 12.3461 1.32849L10.5524 3.63468C10.4245 3.79917 10.3793 4.01336 10.4298 4.21553L10.9771 6.40459C11.1257 6.99918 10.9515 7.62817 10.5181 8.06155L8.06155 10.5181C7.62817 10.9515 6.99919 11.1257 6.40459 10.9771L4.21553 10.4298C4.01336 10.3793 3.79918 10.4245 3.63468 10.5524L1.32849 12.3461ZM0.511076 14.1152C-0.231039 13.3731 -0.154797 12.1485 0.673634 11.5042L2.97983 9.71046C3.40304 9.3813 3.95409 9.26498 4.47423 9.39502L6.66329 9.94228C6.8944 10.0001 7.13888 9.93234 7.30732 9.7639L9.7639 7.30732C9.93235 7.13887 10.0001 6.8944 9.94229 6.66329L9.39502 4.47423C9.26499 3.95408 9.3813 3.40304 9.71047 2.97983L11.5042 0.673635C12.1485 -0.154797 13.3731 -0.231039 14.1152 0.511076L15.1492 1.545C15.8889 2.28472 16.2137 3.39112 15.8512 4.42225C14.9511 6.98246 13.4774 9.38562 11.4315 11.4315C9.38562 13.4774 6.98246 14.9511 4.42225 15.8512C3.39112 16.2137 2.28472 15.8889 1.545 15.1492L0.511076 14.1152Z" fill="white"/>
</svg>
