<svg width="16" height="16" viewBox="0 0 16 16" fill="none" xmlns="http://www.w3.org/2000/svg">
<path fill-rule="evenodd" clip-rule="evenodd" d="M0.512052 14.1152C-0.230062 13.3731 -0.153821 12.1484 0.674611 11.5041L2.9808 9.7104C3.40401 9.38124 3.95506 9.26492 4.4752 9.39496L6.66427 9.94222C6.89538 10 7.13985 9.93228 7.3083 9.76384L9.76488 7.30726C9.93333 7.13881 10.001 6.89434 9.94327 6.66323L9.396 4.47416C9.26596 3.95402 9.38228 3.40297 9.71145 2.97976L11.5051 0.673573C12.1495 -0.15486 13.3741 -0.2311 14.1162 0.511014L15.1501 1.54494C15.8899 2.28466 16.2147 3.39106 15.8521 4.42219C14.952 6.9824 13.4784 9.38555 11.4325 11.4314C9.38659 13.4773 6.98344 14.951 4.42323 15.8511C3.3921 16.2136 2.2857 15.8888 1.54598 15.1491L0.512052 14.1152Z" fill="black"/>
</svg>
